HIERARCHY
ROOT hip
{
	OFFSET 0.000000 0.000000 0.000000 
	CHANNELS 6 Xposition Yposition Zposition Xrotation Zrotation Yrotation
	JOINT abdomen
	{
		OFFSET 0.000000 3.402643 0.000000 
		CHANNELS 3 Xrotation Zrotation Yrotation
		JOINT chest
		{
			OFFSET 0.000000 8.438565 -0.680529 
			CHANNELS 3 Xrotation Zrotation Yrotation
			JOINT neck
			{
				OFFSET 0.000000 10.207942 -0.272212 
				CHANNELS 3 Xrotation Zrotation Yrotation
				JOINT head
				{
					OFFSET 0.000000 3.130431 0.000000 
					CHANNELS 3 Xrotation Zrotation Yrotation
					End Site
					{
						OFFSET 0.000000 3.130435 0.000000 
					}
				}
			}
			JOINT lCollar
			{
				OFFSET 3.470700 6.669187 -0.816635 
				CHANNELS 3 Yrotation Zrotation Xrotation
				JOINT lShldr
				{
					OFFSET 3.198488 0.000000 0.000000 
					CHANNELS 3 Zrotation Yrotation Xrotation
					JOINT lForeArm
					{
						OFFSET 10.139888 0.000000 0.000000 
						CHANNELS 3 Yrotation Zrotation Xrotation
						JOINT lHand
						{
							OFFSET 8.370511 0.000000 0.000000 
							CHANNELS 3 Zrotation Yrotation Xrotation
							End Site
							{
								OFFSET 4.083176 0.000000 0.000000 
							}
						}
					}
				}
			}
			JOINT rCollar
			{
				OFFSET -3.470700 6.669187 -0.816635 
				CHANNELS 3 Yrotation Zrotation Xrotation
				JOINT rShldr
				{
					OFFSET -3.198488 0.000000 0.000000 
					CHANNELS 3 Zrotation Yrotation Xrotation
					JOINT rForeArm
					{
						OFFSET -10.139888 0.000000 0.000000 
						CHANNELS 3 Yrotation Zrotation Xrotation
						JOINT rHand
						{
							OFFSET -8.370511 0.000000 0.000000 
							CHANNELS 3 Zrotation Yrotation Xrotation
							End Site
							{
								OFFSET -4.083176 0.000000 0.000000 
							}
						}
					}
				}
			}
		}
	}
	JOINT lThigh
	{
		OFFSET 5.308129 -1.633274 1.361059 
		CHANNELS 3 Xrotation Zrotation Yrotation
		JOINT lShin
		{
			OFFSET -2.041588 -20.007561 0.000000 
			CHANNELS 3 Xrotation Zrotation Yrotation
			JOINT lFoot
			{
				OFFSET 0.000000 -19.190928 -1.224953 
				CHANNELS 3 Xrotation Yrotation Zrotation
				End Site
				{
					OFFSET 0.000000 -2.449906 4.627600 
				}
			}
		}
	}
	JOINT rThigh
	{
		OFFSET -5.308129 -1.633274 1.361059 
		CHANNELS 3 Xrotation Zrotation Yrotation
		JOINT rShin
		{
			OFFSET 2.041588 -20.007561 0.000000 
			CHANNELS 3 Xrotation Zrotation Yrotation
			JOINT rFoot
			{
				OFFSET 0.000000 -19.190928 -1.224953 
				CHANNELS 3 Xrotation Yrotation Zrotation
				End Site
				{
					OFFSET 0.000000 -2.449906 4.627600 
				}
			}
		}
	}
}
MOTION
Frames: 12
Frame Time: 0.050000
0.000000 53.498543 0.305648 5.627470 0.628675 2.030900 23.640602 6.232471 10.251686 19.432806 -0.649805 9.354021 8.000000 0.000000 -3.000000 13.120401 1.366530 -9.091120 26.917999 21.425800 2.626950 -73.823807 19.000000 57.000000 -86.073120 6.569098 15.136282 0.000000 0.000000 0.000000 9.000000 -3.427280 -2.382250 58.508480 27.000000 -10.000000 39.682987 26.534239 -25.321449 0.000000 0.000000 0.000000 -51.863514 -0.297489 -8.104392 90.414085 0.538639 -6.426939 2.455152 -10.215586 0.153396 -7.619318 2.436039 7.043868 0.631889 0.000000 0.000000 57.175735 0.000000 0.000000 
0.000000 53.498543 0.305648 5.627470 0.628675 2.030900 23.640602 6.232471 10.251689 19.432806 -0.649805 9.354021 8.000000 0.000000 -3.000000 13.120401 1.366530 -9.091121 26.918001 21.425802 2.626950 -73.665321 19.000002 57.000004 -85.838264 6.569098 15.136285 0.000000 0.000000 0.000000 9.000000 -3.427280 -2.382250 58.037334 27.000002 -10.000001 39.483738 26.545109 -25.335653 0.000000 0.000000 0.000000 -52.091183 -0.297489 -8.104392 90.640312 0.538639 -6.426939 2.455152 -10.215589 0.153396 -7.619318 2.436040 7.043869 0.724766 0.000000 0.000000 57.175735 0.000000 0.000000 
0.000000 53.498543 0.305648 5.627470 0.628675 2.030900 23.640602 6.232471 10.251691 19.432804 -0.649805 9.354021 8.000000 0.000000 -3.000000 13.120401 1.366530 -9.091121 26.918001 21.425802 2.626950 -73.506836 19.000002 57.000004 -85.603409 6.569098 15.136288 0.000000 0.000000 0.000000 9.000000 -3.427280 -2.382250 57.566189 27.000002 -10.000001 39.284489 26.555979 -25.349857 0.000000 0.000000 0.000000 -52.318855 -0.297489 -8.104392 90.866547 0.538639 -6.426940 2.455151 -10.215590 0.153396 -7.619319 2.436040 7.043869 0.817643 0.000000 0.000000 57.175735 0.000000 0.000000 
0.000000 53.498543 0.305648 5.627470 0.628675 2.030900 23.640602 6.232471 10.251693 19.432804 -0.649805 9.354021 8.000000 0.000000 -3.000000 13.120401 1.366530 -9.091121 26.918001 21.425802 2.626950 -73.374428 19.000002 57.000004 -85.404922 6.569099 15.136291 0.000000 0.000000 0.000000 9.000000 -3.427280 -2.382250 57.169155 27.000002 -10.000001 39.112808 26.565218 -25.361931 0.000000 0.000000 0.000000 -52.516998 -0.297489 -8.104392 91.064613 0.538639 -6.426940 2.455151 -10.215592 0.153396 -7.619319 2.436040 7.043869 0.933891 0.000000 0.000000 57.175735 0.000000 0.000000 
0.000000 53.498543 0.305648 5.627470 0.628675 2.030900 23.640602 6.232471 10.251695 19.432804 -0.649805 9.354021 8.000000 0.000000 -3.000000 13.120401 1.366530 -9.091121 26.918001 21.425802 2.626950 -73.300674 19.000002 57.000004 -85.288277 6.569099 15.136292 0.000000 0.000000 0.000000 9.000000 -3.427280 -2.382250 56.938866 27.000002 -10.000001 39.003162 26.570789 -25.369211 0.000000 0.000000 0.000000 -52.648712 -0.297489 -8.104392 91.199341 0.538639 -6.426940 2.455151 -10.215594 0.153396 -7.619319 2.436040 7.043869 1.102724 0.000000 0.000000 57.175735 0.000000 0.000000 
0.000000 53.498543 0.305648 5.627470 0.628675 2.030900 23.640602 6.232471 10.251696 19.432802 -0.649805 9.354021 8.000000 0.000000 -3.000000 13.120401 1.366530 -9.091121 26.918001 21.425802 2.626950 -73.226921 19.000002 57.000004 -85.171623 6.569099 15.136294 0.000000 0.000000 0.000000 9.000000 -3.427280 -2.382250 56.708580 27.000002 -10.000001 38.893517 26.576361 -25.376492 0.000000 0.000000 0.000000 -52.780426 -0.297489 -8.104391 91.334061 0.538639 -6.426940 2.455150 -10.215595 0.153396 -7.619319 2.436040 7.043869 1.271558 0.000000 0.000000 57.175732 0.000000 0.000000 
0.000000 53.498543 0.305648 5.627470 0.628675 2.030900 23.640600 6.232471 10.251698 19.432802 -0.649805 9.354020 8.000000 0.000000 -3.000000 13.120400 1.366530 -9.091120 26.917999 21.425800 2.626950 -73.153175 19.000000 57.000000 -85.054970 6.569099 15.136296 0.000000 0.000000 0.000000 9.000000 -3.427280 -2.382250 56.478291 27.000000 -10.000000 38.783871 26.581930 -25.383772 0.000000 0.000000 0.000000 -52.912140 -0.297489 -8.104391 91.468788 0.538639 -6.426940 2.455150 -10.215597 0.153396 -7.619319 2.436040 7.043869 1.440391 0.000000 0.000000 57.175732 0.000000 0.000000 
0.000000 53.498543 0.305648 5.627470 0.628675 2.030900 23.640600 6.232470 10.251698 19.432800 -0.649805 9.354020 8.000000 0.000000 -3.000000 13.120400 1.366530 -9.091120 26.917999 21.425800 2.626950 -73.079422 19.000000 57.000000 -84.938324 6.569100 15.136298 0.000000 0.000000 0.000000 9.000000 -3.427280 -2.382250 56.248001 27.000000 -10.000000 38.674225 26.587502 -25.391052 0.000000 0.000000 0.000000 -53.043854 -0.297489 -8.104390 91.603508 0.538639 -6.426940 2.455149 -10.215598 0.153396 -7.619320 2.436040 7.043870 1.609224 0.000000 0.000000 57.175728 0.000000 0.000000 
0.000000 53.498543 0.305648 5.627470 0.628675 2.030900 23.640600 6.232470 10.251700 19.432800 -0.649805 9.354020 8.000000 0.000000 -3.000000 13.120400 1.366530 -9.091120 26.917999 21.425800 2.626950 -73.005676 19.000000 57.000000 -84.821671 6.569100 15.136300 0.000000 0.000000 0.000000 9.000000 -3.427280 -2.382250 56.017715 27.000000 -10.000000 38.564579 26.593073 -25.398331 0.000000 0.000000 0.000000 -53.175568 -0.297489 -8.104390 91.738235 0.538639 -6.426940 2.455149 -10.215600 0.153396 -7.619320 2.436040 7.043870 1.778058 0.000000 0.000000 57.175728 0.000000 0.000000 
0.000000 53.498543 0.305648 5.627470 0.628675 2.030900 23.640600 6.232470 10.251700 19.432800 -0.649805 9.354020 8.000000 0.000000 -3.000000 13.120400 1.366530 -9.091120 26.917999 21.425800 2.626950 -73.078224 19.000000 56.999996 -84.912720 6.569100 15.136300 0.000000 0.000000 0.000000 9.000000 -3.427280 -2.382250 56.208706 27.000000 -10.000000 38.617947 26.589247 -25.393330 0.000000 0.000000 0.000000 -53.128971 -0.297489 -8.104390 91.700523 0.538639 -6.426940 2.455149 -10.215600 0.153396 -7.619320 2.436040 7.043870 2.054538 0.000000 0.000000 57.175732 0.000000 0.000000 
0.000000 53.498543 0.305648 5.627470 0.628675 2.030900 23.640600 6.232470 10.251700 19.432798 -0.649805 9.354019 8.000000 0.000000 -3.000000 13.120400 1.366530 -9.091120 26.917999 21.425800 2.626950 -73.162971 19.000000 56.999996 -85.021080 6.569099 15.136301 0.000000 0.000000 0.000000 9.000000 -3.427280 -2.382250 56.434803 27.000000 -10.000000 38.684895 26.584637 -25.387304 0.000000 0.000000 0.000000 -53.067513 -0.297489 -8.104389 91.648445 0.538639 -6.426939 2.455148 -10.215601 0.153396 -7.619319 2.436040 7.043869 2.339989 0.000000 0.000000 57.175732 0.000000 0.000000 
0.000000 53.498543 0.305648 5.627470 0.628675 2.030900 23.640598 6.232470 10.251701 19.432798 -0.649805 9.354019 8.000000 0.000000 -3.000000 13.120399 1.366530 -9.091119 26.917997 21.425798 2.626950 -73.247719 18.999998 56.999992 -85.129440 6.569099 15.136301 0.000000 0.000000 0.000000 8.999999 -3.427279 -2.382250 56.660904 26.999998 -9.999999 38.751846 26.580027 -25.381277 0.000000 0.000000 0.000000 -53.006054 -0.297489 -8.104389 91.596367 0.538639 -6.426939 2.455148 -10.215601 0.153396 -7.619319 2.436040 7.043869 2.625440 0.000000 0.000000 57.175735 0.000000 0.000000 
